<?xml version="1.0" encoding="utf-8" ?><svg xmlns="http://www.w3.org/2000/svg" xmlns:xlink="http://www.w3.org/1999/xlink" width="1024" height="1024" viewBox="0 0 1024 1024"><path fill="#D2D1D0" d="M0 0L1024 0L1024 1024L0 1024L0 0Z"/><path fill="#050509" d="M555.019 514.584C578.86 514.825 602.702 514.916 626.544 514.858C642.657 514.868 659.583 515.126 675.627 514.852C688.422 515.106 701.766 514.895 714.603 514.841C712.635 551.112 709.032 588.884 706.44 625.3C723.151 625.558 740.836 625.188 757.624 625.118C757.032 589.537 751.318 550.384 750.392 514.952L911.868 514.819C915.324 547.164 919.847 580.155 923.695 612.507L965.015 952.736L781.694 952.716C781.314 941.035 779.823 927.539 778.96 915.725L773.474 842.806C772.04 824.817 770.253 805.934 769.438 787.975L694.36 787.869C693.888 792.064 693.495 796.573 693.252 800.792C690.351 851.287 684.749 902.204 682.385 952.712C661.521 953.004 640.07 952.679 619.143 952.683L494.296 952.645C496.441 934.733 499.396 915.944 501.83 897.98L527.187 716.35L545.135 586.948C548.297 563.799 551.105 537.327 555.019 514.584Z"/><path fill="#050509" d="M616.557 71.7821L858.334 71.6426C858.892 82.8278 862.141 104.482 863.544 116.288C867.215 148.232 871.082 180.154 875.144 212.051L911.583 510.573C923.661 510.596 1009.88 510.624 1012.03 511.462C1012.45 512.867 1012.4 512.323 1012.16 513.795C1010.24 514.997 1002.72 514.364 1000.59 514.464C973.332 515.754 678.706 512.437 675.627 514.852C659.583 515.126 642.657 514.868 626.544 514.858C602.702 514.916 578.86 514.825 555.019 514.584C546.116 514.296 470.17 513.533 466.418 514.849C461.706 514.914 456.876 514.907 452.165 514.857C421.049 514.527 389.724 515.356 358.621 514.635C343.449 514.475 182.864 513.871 181.625 514.828L82.3755 514.813C79.6958 513.221 22.9921 515.125 17.0262 514.552C15.1606 514.373 12.7263 514.787 10.2782 513.915L9.80663 512.771L10.3288 511.661C13.9431 509.46 80.8082 511.844 91.636 510.968L92.2258 510.916C108.5 510.345 127.039 510.854 143.562 510.861L233.258 510.541C234.761 510.542 236.244 510.57 237.747 510.544L261.124 510.658C263.358 511.819 345.492 510.87 354.001 510.877L398.245 511.187C403.369 511.188 413.351 511.444 418.108 510.915C424.052 510.735 437.11 510.506 442.931 510.914C449.859 511.695 469.573 511.199 477.3 511.187L548.381 511.01L593.495 511.195C597.03 511.198 609.459 511.4 612.047 510.914C606.61 510.458 597.847 510.685 592.196 510.671L555.804 510.566C557.532 494.367 560.322 477.034 562.562 460.782L577.199 355.792L616.557 71.7821Z"/><path fill="#D2D1D0" d="M731.547 272.728C731.663 272.191 732.042 268.802 732.433 268.692C732.588 268.775 732.743 268.858 732.898 268.941L750.018 510.622C738.309 511.041 726.59 511.119 714.877 510.855C715.837 505.207 716.222 491.876 716.581 485.719C717.446 471.187 718.435 456.662 719.546 442.147C724.119 385.716 728.119 329.24 731.547 272.728Z"/><path fill="#F6F4F4" d="M750.018 510.622C795.376 511.888 841.465 510.07 886.88 510.79C894.884 510.916 903.596 510.954 911.583 510.573C923.661 510.596 1009.88 510.624 1012.03 511.462C1012.45 512.867 1012.4 512.323 1012.16 513.795C1010.24 514.997 1002.72 514.364 1000.59 514.464C973.332 515.754 678.706 512.437 675.627 514.852C659.583 515.126 642.657 514.868 626.544 514.858C602.702 514.916 578.86 514.825 555.019 514.584C546.116 514.296 470.17 513.533 466.418 514.849C461.706 514.914 456.876 514.907 452.165 514.857C421.049 514.527 389.724 515.356 358.621 514.635C343.449 514.475 182.864 513.871 181.625 514.828L82.3755 514.813C79.6958 513.221 22.9921 515.125 17.0262 514.552C15.1606 514.373 12.7263 514.787 10.2782 513.915L9.80663 512.771L10.3288 511.661C13.9431 509.46 80.8082 511.844 91.636 510.968L92.2258 510.916C108.5 510.345 127.039 510.854 143.562 510.861L233.258 510.541C234.761 510.542 236.244 510.57 237.747 510.544L261.124 510.658C263.358 511.819 345.492 510.87 354.001 510.877L398.245 511.187C403.369 511.188 413.351 511.444 418.108 510.915C424.052 510.735 437.11 510.506 442.931 510.914C449.859 511.695 469.573 511.199 477.3 511.187L548.381 511.01L593.495 511.195C597.03 511.198 609.459 511.4 612.047 510.914C645.851 510.132 680.901 511.215 714.877 510.855C726.59 511.119 738.309 511.041 750.018 510.622Z"/><path fill="#55535C" d="M732.255 260.662C732.428 262.705 732.997 267.144 732.898 268.941C732.743 268.858 732.588 268.775 732.433 268.692C732.042 268.802 731.663 272.191 731.547 272.728C731.438 268.311 731.877 264.999 732.255 260.662Z"/><path fill="#050509" d="M68.4046 71.8397L283.041 71.6274C285.926 95.8295 290.317 121.667 293.92 145.916L314.784 286.799L334.483 421.001C338.71 450.6 342.332 481.158 347.446 510.568C318.747 510.974 289.841 510.372 261.124 510.658L237.747 510.544C236.244 510.57 234.761 510.542 233.258 510.541L143.562 510.861C127.039 510.854 108.5 510.345 92.2258 510.916C87.1914 510.347 73.9526 510.66 68.6247 510.661L68.4046 71.8397Z"/><path fill="#D2D1D0" d="M232.934 497.514C233.158 493.281 232.67 475.237 233.235 472.616C233.448 472.738 233.828 473.128 234.007 473.317C234.086 485.079 236.811 498.613 237.747 510.544C236.244 510.57 234.761 510.542 233.258 510.541C233.102 506.14 233.068 501.871 232.934 497.514Z"/><path fill="#55535C" d="M232.934 497.514C231.851 489.958 233.009 481.947 232.721 474.5C232.582 470.898 233.083 462.786 232.716 460.051L232.777 460.237L232.7 459.885C233.453 462.286 234.08 470.712 234.007 473.317C233.828 473.128 233.448 472.738 233.235 472.616C232.67 475.237 233.158 493.281 232.934 497.514Z"/><path fill="#050509" d="M358.621 514.635C389.724 515.356 421.049 514.527 452.165 514.857C456.876 514.907 461.706 514.914 466.418 514.849C488.607 515.303 512.386 514.876 534.692 514.842C530.437 541.379 527.269 566.879 523.577 593.356L501.754 751.24L485.636 869.777C481.892 896.552 477.052 926.009 474.358 952.773L312.837 952.668C311.424 942.309 309.19 930.561 307.434 920.182L296.228 854.399L258.384 632.822L246.903 565.811C243.982 548.702 240.925 532.132 238.775 514.879C274.899 515.287 311.835 514.862 348.022 514.806C349.377 525.399 350.861 539.741 352.978 549.827C354.843 539.024 356.318 524.817 358.621 514.635Z"/><path fill="#050509" d="M436.056 71.9163C488.826 71.1075 542.852 71.6302 595.706 71.6306C593.07 98.1676 588.228 126.561 584.647 153.124L560.506 326.092L543.882 446.413C541.102 466.817 538.302 490.366 534.845 510.574L471.778 510.752C465.688 510.764 447.845 510.28 442.931 510.914C437.11 510.506 424.052 510.735 418.108 510.915C400.808 509.948 377.066 510.686 359.199 510.57C361.488 499.839 363.057 488.191 364.927 477.3L375.847 414.718L418.255 173.755C424.062 141.038 429.32 104.251 436.056 71.9163Z"/><path fill="#050509" d="M68.6809 514.739C73.2454 514.81 77.8105 514.835 82.3755 514.813L181.625 514.828C198.453 515.206 216.281 514.822 233.239 514.829C232.231 563.639 233.006 611.819 232.968 660.621L232.732 952.768L68.5525 952.537L68.6809 514.739Z"/></svg>